<svg width="100" height="100" viewBox="0 0 100 100" fill="none" xmlns="http://www.w3.org/2000/svg">
<mask id="mask0_108_189" style="mask-type:luminance" maskUnits="userSpaceOnUse" x="0" y="0" width="100" height="100">
<path d="M0 1.52588e-05H100V100H0V1.52588e-05Z" fill="white"/>
</mask>
<g mask="url(#mask0_108_189)">
<path d="M50.6128 85.2475C47.7931 84.019 38.8071 79.6083 30.8719 70.4042H27.3741C36.6186 81.9814 47.8603 87.0233 50.1025 87.9497L50.6128 88.1612L51.123 87.9497C53.3653 87.0233 64.6069 81.9814 73.8514 70.4042H70.3536C62.4184 79.6049 53.429 84.019 50.6128 85.2475ZM85.7174 19.731L85.5899 18.8818L84.7641 18.64C83.2334 18.1937 81.6793 17.7774 80.2224 17.3947C74.2105 15.8103 68.7424 14.5683 63.506 13.5915C61.8209 13.276 59.8639 12.9337 57.7659 12.6315C55.6646 12.3294 53.419 12.0743 51.1533 11.9434C47.924 11.7554 44.9701 11.8192 42.1203 12.1482C36.7931 12.7557 31.2143 13.9642 24.5579 15.9447C22.2922 16.6227 19.308 17.5424 16.3574 18.677L15.6223 18.9555L15.5081 19.731C14.6623 25.4509 14.4173 30.7377 14.6522 35.615H17.3476C17.1194 31.0902 17.3174 26.1927 18.0525 20.9058C20.6775 19.929 23.2924 19.1234 25.3233 18.5192C31.8251 16.5824 37.2598 15.4075 42.4258 14.8134C45.1178 14.5045 47.9206 14.4442 50.9954 14.6254C55.3793 14.8805 59.7195 15.619 63.0125 16.2333C68.1853 17.1967 73.5895 18.4253 79.541 19.9928C80.7125 20.3017 81.9511 20.6305 83.183 20.9797C83.9115 26.2397 84.1061 31.1103 83.8779 35.615H86.5734C86.8084 30.7377 86.5633 25.4509 85.7174 19.731Z" fill="#27272A"/>
<path d="M25.0528 67.5057L24.8613 66.5811L24.3155 67.5057H25.0528ZM25.175 68.1004H23.961L23.6312 68.6545H22.7798L24.6088 65.803H25.4032L26.0915 68.6545H25.289L25.175 68.1004Z" fill="#27272A"/>
<path d="M27.0123 68.5873C26.833 68.5044 26.6959 68.3855 26.6009 68.2308C26.5058 68.076 26.4583 67.8941 26.4583 67.6849C26.4583 67.598 26.4691 67.4975 26.4909 67.3835L26.8086 65.803H27.6151L27.3015 67.3714C27.2851 67.4528 27.277 67.5275 27.277 67.5954C27.277 67.8941 27.4345 68.0434 27.7495 68.0434C27.9206 68.0434 28.0558 67.9911 28.1549 67.8866C28.2539 67.782 28.328 67.6104 28.3769 67.3714L28.6905 65.803H29.4849L29.163 67.4201C28.9891 68.281 28.4855 68.7114 27.6518 68.7114C27.4046 68.7114 27.1915 68.67 27.0123 68.5873Z" fill="#27272A"/>
<path d="M30.4665 66.4425H29.5906L29.721 65.8029H32.2751L32.1447 66.4425H31.273L30.8291 68.6544H30.0225L30.4665 66.4425Z" fill="#27272A"/>
<path d="M34.047 67.909C34.1828 67.8195 34.2874 67.6993 34.3608 67.5485C34.434 67.3977 34.4706 67.2315 34.4706 67.0495C34.4706 66.8568 34.4116 66.7026 34.2935 66.5871C34.1753 66.4717 34.0104 66.4141 33.7985 66.4141C33.6193 66.4141 33.4618 66.4588 33.326 66.5485C33.1901 66.638 33.0858 66.7582 33.0124 66.909C32.939 67.0597 32.9024 67.2261 32.9024 67.4081C32.9024 67.6008 32.9614 67.7548 33.0795 67.8703C33.1976 67.9857 33.3626 68.0433 33.5745 68.0433C33.7538 68.0433 33.9113 67.9986 34.047 67.909ZM32.7536 68.5527C32.5405 68.4467 32.3763 68.2987 32.2608 68.1087C32.1454 67.9185 32.0876 67.7012 32.0876 67.4568C32.0876 67.131 32.163 66.8377 32.3138 66.577C32.4645 66.3162 32.6749 66.1126 32.9451 65.966C33.2154 65.8192 33.5229 65.7461 33.8678 65.7461C34.1556 65.7461 34.4061 65.7988 34.6193 65.9048C34.8325 66.0107 34.9968 66.1588 35.1123 66.3488C35.2276 66.539 35.2854 66.7562 35.2854 67.0006C35.2854 67.3265 35.21 67.6197 35.0593 67.8805C34.9086 68.1412 34.6981 68.3448 34.4279 68.4915C34.1576 68.6382 33.8501 68.7115 33.5053 68.7115C33.2174 68.7115 32.9669 68.6586 32.7536 68.5527Z" fill="#27272A"/>
<path d="M39.2896 65.803L38.7275 68.6545H37.982L38.2752 67.1514L37.3262 68.3734H36.9717L36.4545 67.1514L36.153 68.6545H35.4116L35.982 65.803H36.6377L37.3057 67.4527L38.6011 65.803H39.2896Z" fill="#27272A"/>
<path d="M41.3793 67.909C41.515 67.8195 41.6197 67.6993 41.693 67.5485C41.7663 67.3977 41.8029 67.2315 41.8029 67.0495C41.8029 66.8568 41.7439 66.7026 41.6258 66.5871C41.5077 66.4717 41.3427 66.4141 41.1308 66.4141C40.9515 66.4141 40.794 66.4588 40.6583 66.5485C40.5224 66.638 40.418 66.7582 40.3447 66.909C40.2714 67.0597 40.2347 67.2261 40.2347 67.4081C40.2347 67.6008 40.2937 67.7548 40.4118 67.8703C40.5299 67.9857 40.6949 68.0433 40.9068 68.0433C41.086 68.0433 41.2435 67.9986 41.3793 67.909ZM40.0859 68.5527C39.8728 68.4467 39.7085 68.2987 39.5932 68.1087C39.4777 67.9185 39.4199 67.7012 39.4199 67.4568C39.4199 67.131 39.4953 66.8377 39.646 66.577C39.7968 66.3162 40.0072 66.1126 40.2774 65.966C40.5477 65.8192 40.8552 65.7461 41.2 65.7461C41.4879 65.7461 41.7384 65.7988 41.9515 65.9048C42.1648 66.0107 42.329 66.1588 42.4445 66.3488C42.5599 66.539 42.6177 66.7562 42.6177 67.0006C42.6177 67.3265 42.5423 67.6197 42.3915 67.8805C42.2409 68.1412 42.0304 68.3448 41.7602 68.4915C41.4899 68.6382 41.1824 68.7115 40.8375 68.7115C40.5497 68.7115 40.2992 68.6586 40.0859 68.5527Z" fill="#27272A"/>
<path d="M43.7501 66.4425H42.8743L43.0046 65.8029H45.5588L45.4284 66.4425H44.5568L44.1128 68.6544H43.3061L43.7501 66.4425Z" fill="#27272A"/>
<path d="M45.8602 65.803H46.6667L46.0964 68.6545H45.2898L45.8602 65.803Z" fill="#27272A"/>
<path d="M50.1209 65.803L48.3327 68.6545H47.5384L46.8906 65.803H47.7176L48.125 67.6565L49.29 65.803H50.1209Z" fill="#27272A"/>
<path d="M50.9601 66.4263L50.8663 66.9069H52.1332L52.0151 67.5099H50.7441L50.6422 68.0311H52.1373L52.0069 68.6545H49.7217L50.2921 65.803H52.5243L52.3979 66.4263H50.9601Z" fill="#27272A"/>
<path d="M54.0353 68.6259C53.8236 68.569 53.6511 68.4956 53.5181 68.4059L53.8358 67.803C53.9797 67.8955 54.1332 67.9655 54.2961 68.0129C54.4591 68.0604 54.6219 68.0841 54.7849 68.0841C54.9397 68.0841 55.0599 68.0617 55.1454 68.017C55.2309 67.9722 55.2737 67.9104 55.2737 67.8316C55.2737 67.7637 55.2349 67.7107 55.1577 67.6727C55.0802 67.6347 54.9599 67.594 54.7971 67.5505C54.6124 67.5016 54.4591 67.4522 54.3368 67.4019C54.2146 67.3517 54.1093 67.275 54.0211 67.1716C53.9329 67.0685 53.8887 66.9327 53.8887 66.7644C53.8887 66.5606 53.9443 66.3821 54.0557 66.2286C54.1671 66.0752 54.3259 65.9565 54.5323 65.8722C54.7387 65.7881 54.9804 65.746 55.2574 65.746C55.4611 65.746 55.6511 65.767 55.8277 65.8091C56.0042 65.8512 56.1563 65.9117 56.2839 65.9904L55.9906 66.5891C55.8792 66.5186 55.7564 66.465 55.6221 66.4284C55.4876 66.3916 55.3497 66.3734 55.2086 66.3734C55.0483 66.3734 54.9227 66.3991 54.8318 66.4506C54.7408 66.5022 54.6953 66.5689 54.6953 66.6504C54.6953 66.7209 54.7346 66.7752 54.8134 66.8132C54.8922 66.8514 55.0143 66.892 55.1801 66.9354C55.3647 66.9816 55.5174 67.0292 55.6383 67.078C55.7591 67.1269 55.8629 67.2016 55.9499 67.3021C56.0368 67.4026 56.0803 67.5342 56.0803 67.6972C56.0803 67.8982 56.0239 68.0754 55.9112 68.2289C55.7986 68.3821 55.6383 68.501 55.4306 68.5852C55.2228 68.6692 54.9817 68.7114 54.7074 68.7114C54.4712 68.7114 54.2472 68.683 54.0353 68.6259Z" fill="#27272A"/>
<path d="M57.5182 66.4263L57.4244 66.9069H58.6913L58.5732 67.5099H57.3022L57.2004 68.0311H58.6954L58.565 68.6545H56.2798L56.8502 65.803H59.0824L58.956 66.4263H57.5182Z" fill="#27272A"/>
<path d="M61.0212 66.526C60.9425 66.4677 60.8325 66.4384 60.6912 66.4384H60.2676L60.0966 67.2734H60.5772C60.7565 67.2734 60.8951 67.2315 60.9927 67.1473C61.0905 67.063 61.1393 66.9437 61.1393 66.7888C61.1393 66.672 61.1 66.5844 61.0212 66.526ZM61.7463 67.3855C61.6078 67.5743 61.4136 67.7122 61.1638 67.799L61.6486 68.6544H60.8053L60.3817 67.8968H59.9743L59.8236 68.6544H59.0171L59.5873 65.8029H60.8053C61.1692 65.8029 61.4516 65.883 61.6526 66.0433C61.8536 66.2035 61.9541 66.4263 61.9541 66.7114C61.9541 66.972 61.8848 67.1969 61.7463 67.3855Z" fill="#27272A"/>
<path d="M65.49 65.803L63.7019 68.6545H62.9075L62.2598 65.803H63.0868L63.4941 67.6565L64.6591 65.803H65.49Z" fill="#27272A"/>
<path d="M65.661 65.803H66.4676L65.8972 68.6545H65.0906L65.661 65.803Z" fill="#27272A"/>
<path d="M67.27 68.5547C67.0527 68.4501 66.8856 68.3028 66.7689 68.1126C66.6521 67.9226 66.5938 67.704 66.5938 67.4568C66.5938 67.131 66.6691 66.8377 66.8199 66.577C66.9705 66.3162 67.1816 66.1126 67.4532 65.966C67.7247 65.8192 68.0342 65.7461 68.382 65.7461C68.6454 65.7461 68.879 65.7928 69.0826 65.8865C69.2864 65.9802 69.4384 66.1126 69.5389 66.2837L68.9564 66.7481C68.8179 66.5255 68.6087 66.4141 68.3291 66.4141C68.1471 66.4141 67.9869 66.4568 67.8484 66.5423C67.7099 66.6278 67.6019 66.746 67.5246 66.8967C67.4471 67.0476 67.4084 67.2166 67.4084 67.404C67.4084 67.5967 67.4709 67.7516 67.5959 67.8683C67.7207 67.9851 67.8905 68.0433 68.105 68.0433C68.3765 68.0433 68.6087 67.9335 68.8015 67.7136L69.2781 68.1818C69.1234 68.3692 68.9427 68.5043 68.7364 68.5873C68.53 68.6701 68.2937 68.7115 68.0275 68.7115C67.7396 68.7115 67.4871 68.6592 67.27 68.5547Z" fill="#27272A"/>
<path d="M70.7162 66.4263L70.6224 66.9069H71.8893L71.7712 67.5099H70.5002L70.3984 68.0311H71.8934L71.763 68.6545H69.4778L70.0482 65.803H72.2804L72.154 66.4263H70.7162Z" fill="#27272A"/>
<path d="M72.6061 68.6259C72.3944 68.569 72.2219 68.4956 72.0889 68.4059L72.4066 67.803C72.5505 67.8955 72.704 67.9655 72.8669 68.0129C73.0299 68.0604 73.1927 68.0841 73.3557 68.0841C73.5105 68.0841 73.6307 68.0617 73.7162 68.017C73.8017 67.9722 73.8445 67.9104 73.8445 67.8316C73.8445 67.7637 73.8057 67.7107 73.7285 67.6727C73.651 67.6347 73.5307 67.594 73.3679 67.5505C73.1832 67.5016 73.0299 67.4522 72.9076 67.4019C72.7854 67.3517 72.6801 67.275 72.5919 67.1716C72.5037 67.0685 72.4595 66.9327 72.4595 66.7644C72.4595 66.5606 72.5151 66.3821 72.6265 66.2286C72.7379 66.0752 72.8967 65.9565 73.1031 65.8722C73.3095 65.7881 73.5512 65.746 73.8282 65.746C74.0319 65.746 74.2219 65.767 74.3985 65.8091C74.5751 65.8512 74.7271 65.9117 74.8547 65.9904L74.5614 66.5891C74.45 66.5186 74.3272 66.465 74.1929 66.4284C74.0584 66.3916 73.9205 66.3734 73.7794 66.3734C73.6191 66.3734 73.4935 66.3991 73.4026 66.4506C73.3116 66.5022 73.2661 66.5689 73.2661 66.6504C73.2661 66.7209 73.3054 66.7752 73.3842 66.8132C73.463 66.8514 73.5851 66.892 73.7509 66.9354C73.9355 66.9816 74.0882 67.0292 74.2091 67.078C74.3299 67.1269 74.4337 67.2016 74.5207 67.3021C74.6076 67.4026 74.6511 67.5342 74.6511 67.6972C74.6511 67.8982 74.5947 68.0754 74.482 68.2289C74.3694 68.3821 74.2091 68.501 74.0014 68.5852C73.7936 68.6692 73.5525 68.7114 73.2782 68.7114C73.042 68.7114 72.818 68.683 72.6061 68.6259Z" fill="#27272A"/>
<path d="M24.0214 34.3547C23.9768 34.2714 23.9322 34.1882 23.8877 34.1049C22.1123 35.0633 20.3297 36.0085 18.5723 36.9989C18.3826 37.1059 18.2502 37.4798 18.2651 37.7192C18.2731 37.8488 18.6454 38.0505 18.8586 38.057C19.9653 38.0912 21.0737 38.0729 22.1816 38.0729C22.1823 37.9875 22.1831 37.902 22.1838 37.8167C21.2721 37.7718 20.3604 37.7269 19.4488 37.682C19.4108 37.5385 19.3728 37.395 19.3348 37.2514C20.8971 36.2859 22.4592 35.3203 24.0214 34.3547ZM27.2108 37.713H45.9178C44.0424 35.2943 42.2282 33.1252 39.7179 31.7084C38.9824 31.2933 38.0388 30.9562 37.2261 31.0219C34.4961 31.2428 31.7739 31.6112 29.0696 32.0505C28.5779 32.1304 27.9032 32.7478 27.7973 33.2247C27.4769 34.6674 27.3947 36.1632 27.2108 37.713ZM61.0419 39.0168C64.1487 39.9718 67.2556 40.9268 70.3379 41.8743C69.6408 43.2323 68.9498 44.5783 68.1586 46.1194C68.2297 45.4222 68.2042 44.8869 68.3493 44.4029C68.7213 43.1632 68.2289 42.5522 67.0379 42.2878C66.1109 42.082 65.2023 41.7935 64.0762 41.4843C64.4026 42.2357 64.6506 42.8065 64.9582 43.5148C61.0301 40.7137 59.1851 40.5828 55.7411 42.7657C55.6507 42.6817 55.5603 42.5977 55.4701 42.5137C56.2822 41.6399 57.0944 40.766 57.9853 39.8075C45.9489 39.6375 33.8544 39.4668 21.7174 39.2953C22.9877 40.693 24.0713 41.8854 25.1551 43.0778C25.0517 43.1907 24.9483 43.3035 24.8451 43.4165C23.6266 42.1214 22.2297 41.167 20.4331 40.9953C18.6266 40.8224 17.0399 41.2669 15.8253 42.7254C15.7346 42.6413 15.6438 42.5572 15.5531 42.473C16.3182 41.5594 17.0832 40.6459 17.9711 39.5857C15.4323 39.7412 12.8681 39.7378 10.3613 40.116C9.00932 40.32 8.56744 41.716 8.32944 43.0148C8.24931 43.4514 8.02006 43.8608 7.65606 44.2084C7.16957 42.345 7.68857 40.7087 8.64144 39.2275C8.87932 38.8577 9.57019 38.6652 10.0789 38.6025C13.2034 38.2174 15.9894 37.0593 18.6986 35.4473C23.2449 32.7418 28.0817 30.4652 33.3878 29.9654C38.3206 29.5009 43.3188 29.5635 48.2826 29.6674C50.8498 29.7212 53.4278 30.2569 55.9561 30.7885C57.4379 31.1002 58.8314 31.832 60.2203 32.5274C54.1971 30.4254 47.9916 30.496 41.5524 30.6823C41.7942 30.9895 41.8922 31.1467 42.0207 31.2727C43.8991 33.1138 45.8252 34.9093 47.6372 36.8134C48.2046 37.4097 48.6834 37.5984 49.4658 37.4773C61.1911 35.6609 72.8794 35.918 84.5041 38.2788C86.4547 38.6749 88.3211 39.4735 90.2418 40.033C91.4745 40.3922 92.0465 41.1133 91.8941 42.4169C91.8417 42.8658 91.9294 43.3312 91.9639 43.9949C91.7834 43.7212 91.6744 43.6198 91.6425 43.498C91.0843 41.3665 91.0926 41.2487 88.9839 41.1377C86.147 40.9882 83.2987 41.0002 80.4569 41.0494C79.9778 41.0577 79.4096 41.517 79.0564 41.9204C78.4911 42.566 78.0711 43.3393 77.4023 43.9843C77.6413 43.1634 77.8802 42.3425 78.1281 41.491C76.3673 41.491 74.6222 41.5239 72.8794 41.4754C72.1414 41.4549 71.3924 41.3244 70.6757 41.1388C67.4939 40.3152 64.3221 39.4534 61.1467 38.6054C61.1118 38.7425 61.0768 38.8797 61.0419 39.0168Z" fill="#DC2626"/>
<path d="M27.0053 48.9349L24.2953 62.4852H19.727L20.7336 57.4908H16.5137L15.5071 62.4852H10.9387L13.6487 48.9349H18.2171L17.2492 53.7356H21.4692L22.4371 48.9349H27.0053Z" fill="#27272A"/>
<path d="M30.1892 62.1851C29.3051 61.7785 28.6276 61.2011 28.1567 60.4526C27.6854 59.7044 27.4502 58.8265 27.4502 57.82C27.4502 57.4071 27.5016 56.9296 27.6049 56.3875L29.0954 48.935H33.6638L32.1927 56.3101C32.1153 56.6715 32.0766 57.0006 32.0766 57.2974C32.0766 57.904 32.2314 58.3556 32.5411 58.6524C32.8508 58.9494 33.3024 59.0975 33.8961 59.0975C34.5669 59.0975 35.0897 58.8846 35.4641 58.4589C35.8382 58.0329 36.1286 57.3167 36.3352 56.3101L37.8063 48.935H42.2972L40.7681 56.5811C40.3548 58.633 39.5292 60.1815 38.2902 61.2269C37.0514 62.2722 35.3993 62.7949 33.3347 62.7949C32.1216 62.7949 31.0731 62.5915 30.1892 62.1851Z" fill="#27272A"/>
<path d="M43.749 62.4174C42.7163 62.1657 41.8647 61.8337 41.1938 61.4205L42.9553 58.0522C44.4135 58.8914 45.9363 59.3106 47.5237 59.3106C48.1045 59.3106 48.5497 59.2397 48.8592 59.0975C49.1692 58.9557 49.3238 58.7621 49.3238 58.5169C49.3238 58.2845 49.1656 58.0977 48.8496 57.9555C48.5332 57.8136 48.0332 57.6587 47.3495 57.4909C46.4461 57.2586 45.6975 57.0232 45.104 56.7844C44.5102 56.5457 43.991 56.1779 43.5457 55.681C43.1005 55.1842 42.878 54.5292 42.878 53.7162C42.878 52.6969 43.152 51.8031 43.7006 51.0352C44.249 50.2675 45.0393 49.6737 46.0718 49.2542C47.1041 48.8351 48.3237 48.6252 49.7306 48.6252C50.7371 48.6252 51.6758 48.7254 52.5468 48.9252C53.4181 49.1255 54.1696 49.4125 54.802 49.7866L53.1566 53.1161C52.6272 52.7806 52.0436 52.529 51.4047 52.3611C50.7661 52.1936 50.1108 52.1095 49.44 52.1095C48.8076 52.1095 48.3172 52.1999 47.969 52.3805C47.6206 52.5614 47.4463 52.7744 47.4463 53.0194C47.4463 53.2646 47.6042 53.4582 47.9205 53.6001C48.2366 53.7421 48.756 53.897 49.4787 54.0646C50.3562 54.2712 51.0951 54.4905 51.6952 54.7227C52.2953 54.955 52.8145 55.3165 53.2535 55.8067C53.6918 56.2974 53.9117 56.9425 53.9117 57.7426C53.9117 58.7492 53.6341 59.6332 53.0792 60.3946C52.5242 61.1561 51.7305 61.7465 50.6983 62.1657C49.6657 62.585 48.4528 62.7949 47.0592 62.7949C45.8847 62.7949 44.7812 62.669 43.749 62.4174Z" fill="#27272A"/>
<path d="M59.1382 52.4773H55.1699L55.8863 48.9349H68.391L67.6748 52.4773H63.7065L61.7128 62.4852H57.1444L59.1382 52.4773Z" fill="#27272A"/>
<path d="M69.5718 48.9349H74.1402L72.1463 58.9427H78.2632L77.5471 62.4852H66.8618L69.5718 48.9349Z" fill="#27272A"/>
<path d="M85.3089 52.3805L84.9993 53.9678H90.7291L90.0709 57.2585H84.3218L83.9733 59.0395H90.7678L90.0709 62.4852H78.8049L81.5149 48.9349H92.5293L91.8324 52.3805H85.3089Z" fill="#27272A"/>
<path d="M19.0017 23.301C19.6085 23.016 20.2285 22.7592 20.8508 22.5088L21.7913 22.1509L22.7383 21.81C24.0046 21.3647 25.2875 20.9677 26.577 20.5924C29.1623 19.865 31.7853 19.2662 34.4326 18.8018C37.0788 18.3295 39.7501 18.0019 42.429 17.7764C43.7682 17.6543 45.112 17.5994 46.4548 17.5355L48.471 17.486C48.807 17.4739 49.1431 17.4774 49.4792 17.4785L50.4876 17.4814L51.496 17.4878L52.5038 17.5225L53.5116 17.5577C53.8473 17.5718 54.1837 17.5749 54.5188 17.6009L56.5313 17.7293L57.0345 17.7614L57.5365 17.8079L58.5401 17.9039C59.88 18.0167 61.2112 18.2055 62.5446 18.3735C62.8783 18.4119 63.2097 18.4683 63.5415 18.521L64.5367 18.6807L65.5312 18.8432C65.6967 18.8713 65.8631 18.8948 66.028 18.9269L66.5225 19.0238L68.5 19.4114L68.9942 19.5083C69.1586 19.542 69.3217 19.5824 69.4855 19.6192L70.4668 19.847C71.12 20.0027 71.7762 20.1453 72.4265 20.3117L74.3713 20.8339L75.3423 21.0994C75.6646 21.1922 75.984 21.2959 76.305 21.3937L78.2275 21.9884C79.5063 22.3927 80.7648 22.8598 82.0298 23.301L80.1046 22.7212L79.1442 22.426L78.6643 22.2784L78.1795 22.1469L76.241 21.6208C75.9176 21.5347 75.5958 21.4424 75.2713 21.3612L74.2941 21.1304L72.343 20.6607C71.691 20.5113 71.0336 20.3858 70.3795 20.2472L69.3974 20.0429C69.2337 20.0093 69.0707 19.9722 68.9065 19.9414L68.4126 19.854L66.4378 19.504L65.9442 19.4167C65.7797 19.3877 65.6137 19.3674 65.4485 19.3423L64.4563 19.1987L63.4647 19.0522C63.1342 19.0033 62.8042 18.9507 62.4717 18.9163C61.144 18.7638 59.8187 18.5905 58.4857 18.4933L57.4876 18.4055L56.9886 18.3612L56.4885 18.3312L54.4882 18.2109C54.1551 18.1862 53.8208 18.1843 53.4872 18.1715L52.4858 18.1404L51.4845 18.1093L50.4827 18.106L49.4808 18.0995C49.147 18.0973 48.813 18.0925 48.4791 18.1033L46.4758 18.1452C45.1413 18.2015 43.8066 18.2589 42.4747 18.3648C39.8097 18.5552 37.1537 18.8679 34.513 19.281C31.8733 19.7015 29.2502 20.2325 26.6561 20.8865C24.0625 21.5402 21.4918 22.3078 19.0017 23.301Z" fill="#DC2626"/>
<path d="M39.9114 76.0743C40.7864 76.6478 41.6543 77.2305 42.5333 77.7963C43.4079 78.3685 44.2866 78.9336 45.1669 79.4953C46.0504 80.052 46.9354 80.6052 47.8335 81.1338L48.5092 81.5253L49.1915 81.9021C49.4187 82.0278 49.6524 82.1377 49.8824 82.2563C50.1132 82.3728 50.3507 82.4652 50.5844 82.5711L50.4198 82.5847L53.1862 80.9242C54.1126 80.3777 55.0349 79.8242 55.9645 79.2833C56.8919 78.7383 57.8229 78.1995 58.755 77.6623C59.6921 77.1336 60.6224 76.5933 61.5655 76.0743C60.667 76.6671 59.7556 77.2387 58.8511 77.8217C57.9416 78.3963 57.0311 78.9692 56.1169 79.5361C55.205 80.1068 54.2856 80.6652 53.3704 81.2305L50.6121 82.9053L50.5285 82.956L50.4474 82.919C50.2055 82.8083 49.9556 82.7087 49.7205 82.5885C49.4866 82.4663 49.2475 82.352 49.0181 82.2235L48.3298 81.8383L47.6531 81.4358C46.759 80.8876 45.8761 80.3238 45.0089 79.7373C44.14 79.1533 43.282 78.5541 42.4313 77.9451C41.5859 77.3286 40.7381 76.7157 39.9114 76.0743Z" fill="#DC2626"/>
<path d="M50.6133 19.7865L51.2056 21.6096H53.1225L51.5718 22.7362L52.164 24.5594L50.6133 23.4326L49.0625 24.5594L49.6548 22.7362L48.104 21.6096H50.0209L50.6133 19.7865Z" fill="#DC2626"/>
<path d="M57.9561 20.9946L58.4205 22.4239H59.9235L58.7076 23.3073L59.172 24.7367L57.9561 23.8533L56.7403 24.7367L57.2046 23.3073L55.9888 22.4239H57.4918L57.9561 20.9946Z" fill="#DC2626"/>
<path d="M64.1136 22.4563L64.4508 23.4942H65.5421L64.6592 24.1357L64.9964 25.1736L64.1136 24.5321L63.2307 25.1736L63.5679 24.1357L62.6851 23.4942H63.7763L64.1136 22.4563Z" fill="#DC2626"/>
<path d="M43.9505 20.9946L43.4862 22.4239H41.9832L43.199 23.3073L42.7347 24.7367L43.9505 23.8533L45.1664 24.7367L44.702 23.3073L45.9179 22.4239H44.4149L43.9505 20.9946Z" fill="#DC2626"/>
<path d="M37.793 22.4563L37.4558 23.4942H36.3645L37.2474 24.1357L36.9101 25.1736L37.793 24.5321L38.6759 25.1736L38.3386 24.1357L39.2215 23.4942H38.1303L37.793 22.4563Z" fill="#DC2626"/>
<path d="M43.709 74.5959V75.0349H41.5942V72.2153H43.6526V72.6543H42.118V73.3874H43.4795V73.8184H42.118V74.5959H43.709Z" fill="#27272A"/>
<path d="M44.5368 74.9825C44.334 74.9208 44.1735 74.8389 44.0554 74.7368L44.2367 74.33C44.3522 74.4213 44.4938 74.4958 44.6617 74.5535C44.8294 74.6113 44.998 74.6402 45.1672 74.6402C45.3767 74.6402 45.533 74.6067 45.6364 74.5394C45.7398 74.4724 45.7915 74.3838 45.7915 74.2735C45.7915 74.193 45.7627 74.1265 45.7049 74.0743C45.6472 74.0219 45.574 73.981 45.4854 73.9513C45.3968 73.9218 45.2759 73.8883 45.1229 73.8507C44.908 73.7997 44.7342 73.7487 44.6012 73.6977C44.4683 73.6465 44.3542 73.5667 44.2588 73.4579C44.1635 73.3492 44.1158 73.2022 44.1158 73.0168C44.1158 72.8612 44.1582 72.7194 44.2428 72.5919C44.3273 72.4644 44.4548 72.363 44.6254 72.2878C44.7959 72.2127 45.0047 72.175 45.2518 72.175C45.4237 72.175 45.5928 72.1964 45.7593 72.2394C45.9258 72.2824 46.0694 72.3443 46.1903 72.4248L46.0252 72.8315C45.9015 72.759 45.7727 72.704 45.6385 72.6664C45.5042 72.6289 45.3739 72.6099 45.2478 72.6099C45.0409 72.6099 44.8873 72.645 44.7865 72.7147C44.6858 72.7845 44.6354 72.8773 44.6354 72.9927C44.6354 73.0733 44.6643 73.139 44.7222 73.1902C44.7798 73.2412 44.853 73.2814 44.9417 73.3109C45.0303 73.3405 45.151 73.3739 45.304 73.4117C45.5135 73.4599 45.6854 73.5103 45.8197 73.5627C45.9539 73.615 46.0688 73.695 46.1642 73.8023C46.2594 73.9098 46.3072 74.0548 46.3072 74.2373C46.3072 74.3932 46.2648 74.5342 46.1802 74.6603C46.0957 74.7865 45.9674 74.8873 45.7955 74.9624C45.6237 75.0375 45.4142 75.0753 45.1672 75.0753C44.9497 75.0753 44.7395 75.0443 44.5368 74.9825Z" fill="#27272A"/>
<path d="M47.3587 72.6584H46.4241V72.2153H48.8168V72.6584H47.8822V75.0349H47.3587V72.6584Z" fill="#27272A"/>
<path d="M52.1637 74.5918V75.0349H50.0853V74.6846L51.2051 73.6211C51.3313 73.5003 51.4166 73.3948 51.4608 73.3048C51.5052 73.2149 51.5273 73.1256 51.5273 73.0369C51.5273 72.9054 51.4831 72.8048 51.3944 72.7349C51.3058 72.6652 51.1754 72.6302 51.0037 72.6302C50.7162 72.6302 50.4962 72.7282 50.3431 72.9243L49.9766 72.6422C50.0866 72.4947 50.2349 72.3797 50.4216 72.2978C50.6082 72.2159 50.8171 72.1751 51.0479 72.1751C51.3541 72.1751 51.5984 72.2476 51.7811 72.3926C51.9637 72.5374 52.0549 72.7349 52.0549 72.9847C52.0549 73.1377 52.0228 73.2814 51.9583 73.4157C51.8938 73.5499 51.7703 73.7031 51.5878 73.8749L50.8344 74.5918H52.1637Z" fill="#27272A"/>
<path d="M54.1074 74.3702C54.2241 74.2039 54.2826 73.9555 54.2826 73.6251C54.2826 73.2947 54.2241 73.0465 54.1074 72.88C53.9906 72.7134 53.8315 72.6302 53.6301 72.6302C53.4312 72.6302 53.2736 72.7134 53.1567 72.88C53.0399 73.0465 52.9815 73.2947 52.9815 73.6251C52.9815 73.9555 53.0399 74.2039 53.1567 74.3702C53.2736 74.5367 53.4312 74.62 53.6301 74.62C53.8315 74.62 53.9906 74.5367 54.1074 74.3702ZM53.0259 74.904C52.8486 74.7899 52.7089 74.6235 52.607 74.4046C52.5049 74.1856 52.4539 73.9259 52.4539 73.6251C52.4539 73.3244 52.5049 73.0645 52.607 72.8456C52.7089 72.6269 52.8486 72.4602 53.0259 72.3461C53.2031 72.2321 53.4045 72.175 53.6301 72.175C53.8556 72.175 54.0576 72.2321 54.2364 72.3461C54.4149 72.4602 54.5551 72.6269 54.6572 72.8456C54.7592 73.0645 54.8104 73.3244 54.8104 73.6251C54.8104 73.9259 54.7592 74.1856 54.6572 74.4046C54.5551 74.6235 54.4149 74.7899 54.2364 74.904C54.0576 75.0182 53.8556 75.0752 53.6301 75.0752C53.4045 75.0752 53.2031 75.0182 53.0259 74.904Z" fill="#27272A"/>
<path d="M57.1869 74.5918V75.0349H55.1085V74.6846L56.2283 73.6211C56.3545 73.5003 56.4398 73.3948 56.484 73.3048C56.5284 73.2149 56.5505 73.1256 56.5505 73.0369C56.5505 72.9054 56.5063 72.8048 56.4176 72.7349C56.329 72.6652 56.1986 72.6302 56.0269 72.6302C55.7394 72.6302 55.5194 72.7282 55.3663 72.9243L54.9998 72.6422C55.1098 72.4947 55.2581 72.3797 55.4448 72.2978C55.6314 72.2159 55.8403 72.1751 56.0711 72.1751C56.3773 72.1751 56.6216 72.2476 56.8043 72.3926C56.9869 72.5374 57.0781 72.7349 57.0781 72.9847C57.0781 73.1377 57.046 73.2814 56.9815 73.4157C56.917 73.5499 56.7935 73.7031 56.611 73.8749L55.8576 74.5918H57.1869Z" fill="#27272A"/>
<path d="M59.1306 74.3702C59.2473 74.2039 59.3058 73.9555 59.3058 73.6251C59.3058 73.2947 59.2473 73.0465 59.1306 72.88C59.0138 72.7134 58.8547 72.6302 58.6533 72.6302C58.4544 72.6302 58.2968 72.7134 58.1799 72.88C58.0631 73.0465 58.0047 73.2947 58.0047 73.6251C58.0047 73.9555 58.0631 74.2039 58.1799 74.3702C58.2968 74.5367 58.4544 74.62 58.6533 74.62C58.8547 74.62 59.0138 74.5367 59.1306 74.3702ZM58.0491 74.904C57.8718 74.7899 57.7321 74.6235 57.6302 74.4046C57.5281 74.1856 57.4771 73.9259 57.4771 73.6251C57.4771 73.3244 57.5281 73.0645 57.6302 72.8456C57.7321 72.6269 57.8718 72.4602 58.0491 72.3461C58.2263 72.2321 58.4277 72.175 58.6533 72.175C58.8788 72.175 59.0808 72.2321 59.2596 72.3461C59.4381 72.4602 59.5784 72.6269 59.6804 72.8456C59.7824 73.0645 59.8336 73.3244 59.8336 73.6251C59.8336 73.9259 59.7824 74.1856 59.6804 74.4046C59.5784 74.6235 59.4381 74.7899 59.2596 74.904C59.0808 75.0182 58.8788 75.0752 58.6533 75.0752C58.4277 75.0752 58.2263 75.0182 58.0491 74.904Z" fill="#27272A"/>
</g>
</svg>
